<?xml version="1.0" standalone="no"?>
<!DOCTYPE svg PUBLIC "-//W3C//DTD SVG 20010904//EN"
 "http://www.w3.org/TR/2001/REC-SVG-20010904/DTD/svg10.dtd">
<svg version="1.0" xmlns="http://www.w3.org/2000/svg"
 width="288.000000pt" height="288.000000pt" viewBox="0 0 288.000000 288.000000"
 preserveAspectRatio="xMidYMid meet">
<metadata>
Created by potrace 1.14, written by Peter Selinger 2001-2017
</metadata>
<g transform="translate(0.000000,288.000000) scale(0.100000,-0.100000)"
fill="#000000" stroke="none">
<path d="M1315 2819 c-78 -16 -87 -18 -106 -24 -10 -4 -24 -3 -31 2 -7 4 -17
8 -23 8 -15 2 -83 -33 -127 -65 -32 -24 -43 -27 -58 -18 -14 9 -25 5 -62 -25
-58 -47 -95 -90 -139 -157 -36 -54 -65 -105 -60 -105 11 0 -15 -36 -30 -40
-26 -9 -42 -43 -79 -165 -44 -149 -45 -153 -42 -280 2 -141 10 -217 24 -245 6
-11 12 -33 14 -50 8 -103 70 -312 124 -420 39 -77 48 -90 68 -87 15 2 22 -2
22 -13 0 -18 40 -84 63 -103 14 -12 15 4 15 151 0 91 3 175 7 187 4 12 9 32
10 43 16 96 39 162 53 153 5 -3 8 -18 6 -33 -3 -16 -6 -63 -7 -105 -3 -70 -1
-78 16 -78 10 0 27 5 37 10 13 7 21 7 25 0 7 -11 1 -23 -58 -132 -45 -81 -55
-134 -34 -175 22 -42 106 -124 157 -152 l44 -25 -28 48 c-57 98 -43 181 49
279 25 27 45 51 45 54 0 3 11 18 25 35 14 16 25 36 25 44 0 8 4 14 9 14 5 0
13 9 16 20 9 27 27 25 55 -5 13 -14 27 -25 32 -25 5 0 19 -9 30 -20 12 -11 26
-19 32 -17 5 2 19 37 32 77 13 41 28 89 34 107 26 78 24 81 -78 162 l-43 34 3
69 c1 38 5 74 9 79 3 6 21 12 40 15 19 3 40 7 47 9 20 7 14 -14 -13 -42 -13
-15 -23 -29 -20 -31 2 -2 24 5 49 17 38 16 59 19 123 14 154 -11 156 -11 190
14 17 13 36 23 41 23 12 0 22 -24 22 -51 0 -25 12 -24 28 1 19 31 32 169 20
210 -6 23 -27 89 -46 148 -16 51 -17 52 -47 46 -16 -3 -43 -13 -58 -21 -28
-14 -30 -13 -77 36 -27 28 -54 51 -59 51 -6 0 -10 3 -9 8 1 4 -3 17 -10 28
-19 35 -8 137 21 192 49 93 68 124 93 149 24 23 24 26 7 38 -14 11 -15 15 -4
28 17 21 8 34 -32 43 -17 4 -35 9 -39 10 -5 1 -17 2 -28 3 -11 0 -30 12 -41
25 -20 23 -27 25 -95 20 -43 -2 -75 0 -79 6 -7 12 -43 11 -100 -1z"/>
<path d="M1530 1742 c0 -5 7 -9 15 -9 8 0 15 4 15 9 0 4 -7 8 -15 8 -8 0 -15
-4 -15 -8z"/>
<path d="M1570 1739 c0 -18 71 -42 94 -31 18 8 14 11 -33 26 -65 19 -61 19
-61 5z"/>
<path d="M1800 1710 c-14 -11 -21 -20 -16 -20 5 0 1 -9 -8 -19 -10 -11 -15
-25 -11 -30 10 -17 35 -13 35 5 0 11 6 15 20 11 26 -7 34 7 15 23 -9 7 -13 21
-10 31 8 23 6 23 -25 -1z"/>
<path d="M1546 1693 c-1 -1 -16 -3 -34 -5 -18 -1 -32 -5 -32 -9 0 -12 28 -30
42 -28 7 2 23 -1 36 -5 17 -6 29 -3 43 10 14 13 19 14 19 4 0 -11 2 -12 13 -1
10 10 8 15 -7 27 -16 11 -70 17 -80 7z"/>
<path d="M1627 1396 c-27 -12 -27 -13 -8 -30 41 -37 100 -22 101 27 0 21 -49
22 -93 3z"/>
<path d="M1187 1180 c-65 -68 -75 -127 -35 -208 24 -48 30 -57 61 -81 18 -14
18 -13 0 30 -26 65 -24 181 5 241 34 73 26 78 -31 18z"/>
<path d="M1373 1099 c-37 -18 -79 -78 -91 -129 -10 -47 -10 -178 1 -227 15
-63 22 -61 32 7 11 76 34 169 50 200 40 77 126 95 188 38 56 -53 72 -124 56
-243 -17 -128 -18 -135 -8 -129 5 3 7 10 4 15 -4 5 -2 9 2 9 5 0 9 8 10 18 2
27 35 112 43 112 4 0 11 -8 14 -17 4 -10 13 -31 22 -46 18 -32 21 -83 9 -144
-6 -36 -5 -43 8 -43 23 0 45 26 57 68 20 75 10 110 -55 187 -38 44 -45 59 -45
95 0 42 -25 110 -40 110 -5 0 -37 30 -73 66 -56 57 -70 67 -105 70 -24 2 -54
-5 -79 -17z"/>
<path d="M891 959 c-25 -73 -2 -116 84 -154 22 -10 48 -25 58 -33 9 -8 17 -12
17 -8 0 7 14 -4 61 -46 16 -15 29 -32 29 -37 0 -5 7 -16 15 -24 13 -14 12 -20
-5 -60 -21 -46 -35 -57 -75 -57 -13 0 -25 -6 -28 -12 -2 -7 -7 -11 -10 -8 -2
3 2 36 10 75 16 81 14 129 -7 133 -34 6 -115 -94 -171 -212 -28 -59 -34 -65
-55 -60 -15 4 -34 0 -49 -10 -32 -21 -24 -39 11 -26 34 13 44 12 44 -4 0 -26
-70 -181 -87 -193 -15 -12 -15 -13 1 -19 26 -10 51 20 90 110 19 44 40 82 48
86 19 11 77 0 72 -14 -2 -6 -10 -55 -18 -108 -11 -69 -12 -107 -5 -132 9 -32
14 -36 43 -36 20 0 36 6 39 14 8 19 -3 28 -19 15 -29 -24 -29 62 1 205 9 43
12 46 54 46 l38 0 -17 -83 c-9 -46 -15 -96 -13 -112 10 -72 56 -63 109 22 20
32 39 60 41 62 2 3 10 -5 18 -16 23 -33 63 -23 106 27 33 38 37 40 42 21 9
-34 41 -25 72 19 15 22 29 39 31 37 2 -1 -1 -20 -6 -42 -15 -65 -12 -93 10
-100 22 -7 60 10 60 28 0 7 5 19 10 27 8 13 12 12 24 -6 32 -44 76 -30 120 38
16 24 20 26 33 13 17 -17 49 -20 58 -5 12 19 35 10 35 -13 0 -46 49 -63 87
-30 23 22 93 134 93 151 0 20 -28 14 -35 -8 -3 -11 -12 -26 -19 -32 -6 -7 -22
-30 -35 -50 -31 -51 -52 -51 -40 1 5 21 18 59 29 85 33 78 21 101 -26 49 -21
-25 -25 -26 -34 -12 -11 20 -56 14 -80 -10 -9 -9 -38 -49 -65 -88 -26 -40 -52
-73 -56 -73 -5 0 -12 0 -16 0 -7 0 -8 19 -4 64 0 8 12 17 25 20 35 9 79 71 67
94 -11 20 -45 26 -72 12 -10 -6 -30 -36 -45 -67 -30 -63 -64 -113 -75 -113 -4
0 2 41 13 90 11 50 17 97 14 105 -10 27 -35 16 -62 -27 -14 -24 -35 -56 -45
-73 l-19 -30 6 53 c9 68 -6 68 -50 -1 -18 -28 -52 -72 -74 -97 -39 -42 -41
-43 -41 -20 -1 46 11 69 39 79 35 12 63 52 58 83 -2 17 -10 24 -34 26 -37 4
-55 -15 -104 -104 -71 -128 -105 -184 -113 -184 -8 0 -5 47 8 107 12 52 58
198 66 209 5 6 41 16 81 23 99 17 123 28 109 45 -9 10 -21 12 -44 6 -18 -5
-54 -11 -80 -15 -53 -7 -50 -11 -32 53 5 17 2 22 -13 22 -18 0 -20 6 -18 53 2
29 -4 64 -11 80 -16 33 -72 86 -90 87 -7 0 -13 5 -13 11 0 5 -4 8 -8 5 -13 -8
-106 57 -117 82 -14 31 -31 27 -44 -9z m134 -301 c-3 -13 -10 -32 -15 -43 -8
-18 -33 -104 -47 -163 -5 -21 -10 -23 -42 -17 -20 4 -37 8 -39 10 -6 5 51 115
91 178 38 58 64 76 52 35z m80 -177 c-9 -35 -24 -49 -60 -53 -28 -3 -30 -1
-28 26 3 47 8 51 52 52 40 0 42 -1 36 -25z m551 -49 c-22 -23 -29 -10 -9 18
11 16 18 19 21 11 2 -7 -3 -20 -12 -29z m-356 -8 c-18 -21 -24 -10 -9 18 8 14
14 18 17 10 2 -7 -2 -19 -8 -28z m524 10 c7 -17 -42 -84 -61 -84 -16 0 -16 0
3 46 22 53 46 69 58 38z"/>
<path d="M1807 195 c-19 -19 -11 -52 15 -61 28 -9 15 -30 -17 -26 -19 2 -26
-1 -23 -10 7 -20 53 -21 72 -3 22 22 20 31 -9 57 -27 23 -24 42 6 33 13 -4 19
-2 19 9 0 21 -43 21 -63 1z"/>
<path d="M1899 198 c0 -7 -2 -20 -4 -28 -16 -64 -17 -92 -4 -88 8 2 15 14 17
25 2 14 13 23 32 26 32 7 48 40 30 62 -15 18 -70 20 -71 3z m49 -25 c-5 -25
-28 -28 -28 -4 0 12 6 21 16 21 9 0 14 -7 12 -17z"/>
<path d="M1992 148 c-17 -37 -25 -65 -19 -67 6 -2 16 4 22 13 15 20 45 21 45
1 0 -8 7 -15 15 -15 12 0 14 10 9 53 -6 67 -10 77 -28 77 -9 0 -28 -27 -44
-62z m46 7 c0 -14 -6 -25 -14 -25 -11 0 -11 5 -2 25 6 14 12 25 13 25 2 0 3
-11 3 -25z"/>
</g>
</svg>
